<svg width="48" height="48" viewBox="0 0 48 48" xmlns="http://www.w3.org/2000/svg"><title>logo</title><path d="M48.003 24c0 13.255-10.746 24-24.001 24C10.746 48 0 37.255 0 24S10.746 0 24.002 0c13.255 0 24 10.745 24 24zM27.3 35.79c6.309 0 11.441-5.132 11.441-11.44 0-6.31-5.132-11.443-11.441-11.443h-3.834v3.813h3.834c4.206 0 7.628 3.423 7.628 7.63 0 4.205-3.422 7.627-7.628 7.627h-9.788v3.814H27.3zm-14.797.016h3.814V12.962h-3.814v22.844zm5.009-19.085h4.576v-3.814h-4.576v3.814zm0 9.187h4.576v-3.814h-4.576v3.814z" fill="#272C33" fill-rule="evenodd"/></svg>