<?xml version="1.0" encoding="UTF-8" standalone="no"?>
<svg width="40px" height="39px" viewBox="0 0 40 39" version="1.1" xmlns="http://www.w3.org/2000/svg" xmlns:xlink="http://www.w3.org/1999/xlink">
    <!-- Generator: Sketch 3.7 (28169) - http://www.bohemiancoding.com/sketch -->
    <title>styleicon.svg</title>
    <desc>Created with Sketch.</desc>
    <defs></defs>
    <g id="Page-1" stroke="none" stroke-width="1" fill="none" fill-rule="evenodd">
        <g id="Group" fill="#000000">
            <path d="M20.272,38.16 C24.647,22.518 24.52,22.447 27.682,11.294 L28.442,11.734 C28.856,11.971 29.194,11.776 29.194,11.3 L29.194,5.98 C30.034,3.042 30.69,0.77 30.884,0.09 L34.309,0.09 L40,5.36 L36.262,8.59 L39.089,11.647 L20.46,38.16 C20.37,38.31 20.243,38.276 20.272,38.16 L20.272,38.16 Z" id="Shape"></path>
            <path d="M22.307,4.444 C22.477,4.444 22.613,4.537 22.613,4.654 L22.613,7.379 C22.613,7.493 22.476,7.586 22.307,7.586 L17.707,7.586 C17.537,7.586 17.4,7.493 17.4,7.378 L17.4,4.652 C17.4,4.537 17.537,4.442 17.706,4.442 L22.306,4.442 L22.307,4.444 Z M27.987,1.426 L22.925,4.348 C22.983,4.438 23.019,4.541 23.019,4.653 L23.019,7.38 C23.019,7.52 22.963,7.648 22.873,7.75 L27.986,10.702 C28.334,10.904 28.62,10.739 28.62,10.337 L28.62,1.792 C28.62,1.389 28.336,1.225 27.987,1.426 L27.987,1.426 Z M16.993,7.38 L16.993,4.652 C16.993,4.54 17.029,4.437 17.087,4.348 L12.025,1.424 C11.677,1.224 11.391,1.388 11.391,1.79 L11.391,10.335 C11.391,10.737 11.677,10.902 12.026,10.7 L17.138,7.748 C17.048,7.645 16.994,7.518 16.994,7.378 L16.993,7.38 Z" id="Shape"></path>
            <path d="M19.54,38.16 L19.728,38.16 C15.354,22.518 15.48,22.447 12.318,11.294 L11.558,11.734 C11.145,11.971 10.806,11.776 10.806,11.3 L10.806,5.98 C9.966,3.043 9.31,0.77 9.116,0.09 L5.692,0.09 L0,5.36 L3.737,8.59 L0.91,11.648 L19.54,38.16 L19.54,38.16 Z" id="Shape"></path>
            <circle id="Oval" cx="19.861" cy="11.897" r="1.382"></circle>
            <circle id="Oval" cx="19.861" cy="20.112" r="1.382"></circle>
            <circle id="Oval" cx="19.861" cy="28.329" r="1.382"></circle>
        </g>
    </g>
</svg>